<?xml version="1.0" encoding="UTF-8"?>
<svg id="Capa_1" xmlns="http://www.w3.org/2000/svg" version="1.1" viewBox="0 0 742.8 96.1">
  <!-- Generator: Adobe Illustrator 29.8.1, SVG Export Plug-In . SVG Version: 2.1.1 Build 2)  -->
  <polygon points="66.3 56.4 34.3 56.4 31.6 71.7 69.6 71.7 66.3 90.4 4.7 90.4 19.2 6.5 81.2 6.5 77.9 25.3 39.7 25.3 37.5 37.7 69.5 37.7 66.3 56.4"/>
  <polygon points="115.8 32 132.1 6.5 160.3 6.6 128.5 49.3 147.3 90.4 120.3 90.4 111.8 64.4 94.9 90.4 66.6 90.4 99.2 47 82.8 6.6 108.7 6.5 115.8 32"/>
  <polygon points="195.3 32 211.6 6.5 239.8 6.6 208.1 49.3 226.8 90.4 199.8 90.4 191.3 64.4 174.4 90.4 146.1 90.4 178.7 47 162.4 6.6 188.3 6.5 195.3 32"/>
  <polygon points="274.9 32 291.1 6.5 319.3 6.6 287.6 49.3 306.3 90.4 279.3 90.4 270.8 64.4 253.9 90.4 225.6 90.4 258.2 47 241.9 6.6 267.8 6.5 274.9 32"/>
  <polygon points="394.9 25.3 369.1 25.3 357.7 90.4 333.9 90.4 345.3 25.3 320.1 25.3 323.4 6.5 398.2 6.5 394.9 25.3"/>
  <g>
    <path d="M430.3,62.6h-9.7l-4.8,27.8h-23.8l14.5-83.9h34.9c9.6.3,17.1,2.5,22.6,6.7,5.5,4.2,8,10.1,7.7,17.7-.3,6.5-2.1,11.7-5.3,15.8-3.2,4.1-7.7,7.3-13.5,9.6l12.1,32.9v1.2h-25.3l-9.4-27.8ZM423.7,43.9h11.2c3.3,0,6.1-.8,8.5-2.4,2.4-1.6,3.9-4.1,4.5-7.6.4-2.7,0-4.8-1.4-6.2-1.4-1.4-3.3-2.2-5.9-2.3h-13.5c0,0-3.3,18.6-3.3,18.6Z"/>
    <polygon points="535.9 56.4 504 56.4 501.2 71.7 539.2 71.7 535.9 90.4 474.3 90.4 488.8 6.5 550.8 6.5 547.6 25.3 509.4 25.3 507.1 37.7 539.2 37.7 535.9 56.4"/>
    <polygon points="589 6.5 596.7 59.8 622.8 6.5 654.7 6.5 640.1 90.4 616.2 90.4 618.8 76.2 628.4 34.1 599.9 90.4 584.5 90.4 575.1 31.4 569.4 78.7 567.4 90.4 543.5 90.4 558.1 6.5 589 6.5"/>
    <path d="M690.7,91.5c-7.3,0-13.7-1.9-19-5.5-5.3-3.6-9.3-8.5-11.8-14.8-2.5-6.3-3.4-13.3-2.7-21.2l.3-3c.9-8.1,3.4-15.4,7.6-21.9,4.1-6.5,9.5-11.5,15.9-15,6.5-3.5,13.6-5.1,21.3-4.9,7.2,0,13.4,1.9,18.7,5.4,5.3,3.5,9.2,8.4,11.8,14.7,2.5,6.3,3.5,13.3,2.8,21.1l-.3,2.9c-.9,8.1-3.4,15.4-7.4,21.9-4.1,6.5-9.3,11.6-15.9,15.1-6.5,3.6-13.6,5.3-21.4,5.1M712.2,41.7c.3-11.6-3.4-17.6-11.2-18-5.2-.2-9.5,1.7-13,5.9-3.5,4.2-5.7,10-6.6,17.5-.4,4.4-.6,7.8-.6,10.3,0,4.7,1,8.5,3,11.3,2,2.9,4.8,4.3,8.6,4.4,5.9.3,10.6-2.4,14.2-8.1,3.6-5.7,5.5-13.5,5.8-23.3"/>
  </g>
</svg>